<?xml version="1.0" encoding="UTF-8"?>
<!DOCTYPE svg PUBLIC "-//W3C//DTD SVG 1.1//EN" "http://www.w3.org/Graphics/SVG/1.1/DTD/svg11.dtd">
<!-- Creator: CorelDRAW 2017 -->
<svg xmlns="http://www.w3.org/2000/svg" xml:space="preserve" width="197.265mm" height="156.995mm" version="1.1" style="shape-rendering:geometricPrecision; text-rendering:geometricPrecision; image-rendering:optimizeQuality; fill-rule:evenodd; clip-rule:evenodd"
viewBox="0 0 29872 23774"
 xmlns:xlink="http://www.w3.org/1999/xlink">
 <defs>
  <style type="text/css">
   <![CDATA[
    .str0 {stroke:#4C4C4C;stroke-width:11.539}
    .fil1 {fill:none}
    .fil0 {fill:#4C4C4C}
   ]]>
  </style>
 </defs>
 <g id="Conteúdo_x0020_do_x0020_PowerClip">
  <metadata id="CorelCorpID_0Corel-Layer"/>
  <polygon class="fil0 str0" points="29690,14850 29690,14850 28841,14359 29866,13768 29866,14952 "/>
  <polygon class="fil0 str0" points="29698,15775 28374,16539 28374,15011 "/>
  <polygon class="fil0 str0" points="29866,17782 28841,17190 29866,16598 "/>
  <polygon class="fil0 str0" points="29866,12041 28978,11529 29021,11504 29866,11016 "/>
  <polygon class="fil0 str0" points="29607,12944 28419,13630 28419,12258 "/>
  <polygon class="fil0 str0" points="27713,16698 26115,15775 27713,14852 "/>
  <polygon class="fil0 str0" points="29597,18606 28424,19283 28424,17929 "/>
  <polygon class="fil0 str0" points="29866,20541 28967,20021 29866,19502 "/>
  <polygon class="fil0 str0" points="29866,9112 29148,8698 29866,8283 "/>
  <polygon class="fil0 str0" points="29410,10113 28518,10628 28518,9598 "/>
  <polygon class="fil0 str0" points="27651,13759 26239,12944 27651,12128 "/>
  <polygon class="fil0 str0" points="27480,14359 25805,15327 25805,13392 "/>
  <polygon class="fil0 str0" points="27502,17190 25794,18177 25794,16204 "/>
  <polygon class="fil0 str0" points="27651,19419 26241,18606 27651,17793 "/>
  <polygon class="fil0 str0" points="29427,21437 28509,21967 28509,20907 "/>
  <polygon class="fil0 str0" points="29770,6105 29357,5867 29770,5628 "/>
  <polygon class="fil0 str0" points="29192,7282 28627,7609 28627,6956 "/>
  <polygon class="fil0 str0" points="27503,10671 26537,10113 27503,9555 "/>
  <polygon class="fil0 str0" points="27212,11529 25940,12263 25940,10794 "/>
  <polygon class="fil0 str0" points="25341,15419 23506,14359 25341,13300 "/>
  <polygon class="fil0 str0" points="25275,15775 23231,16955 23231,14595 "/>
  <polygon class="fil0 str0" points="25390,18335 23408,17190 25390,16046 "/>
  <polygon class="fil0 str0" points="27276,20021 25907,20812 25907,19231 "/>
  <polygon class="fil0 str0" points="27525,22033 26492,21437 27525,20841 "/>
  <polygon class="fil0 str0" points="28962,4451 28742,4578 28742,4324 "/>
  <polygon class="fil0 str0" points="27358,7589 26827,7282 27358,6976 "/>
  <polygon class="fil0 str0" points="26854,8698 26118,9123 26118,8273 "/>
  <polygon class="fil0 str0" points="25164,12283 23858,11529 25164,10774 "/>
  <polygon class="fil0 str0" points="24977,12944 23379,13867 23379,12022 "/>
  <polygon class="fil0 str0" points="22953,16944 20927,15775 22953,14606 "/>
  <polygon class="fil0 str0" points="25229,18606 23254,19746 23254,17466 "/>
  <polygon class="fil0 str0" points="25284,20982 23621,20021 25284,19061 "/>
  <polygon class="fil0 str0" points="26985,22852 26053,23391 26053,22314 "/>
  <polygon class="fil0 str0" points="27238,4550 27067,4451 27238,4352 "/>
  <polygon class="fil0 str0" points="26564,5867 26263,6040 26263,5693 "/>
  <polygon class="fil0 str0" points="24953,9085 24282,8698 24953,8310 "/>
  <polygon class="fil0 str0" points="24536,10113 23600,10654 23600,9572 "/>
  <polygon class="fil0 str0" points="22779,13812 21275,12944 22779,12076 "/>
  <polygon class="fil0 str0" points="22603,14359 20889,15349 20889,13370 "/>
  <polygon class="fil0 str0" points="22864,17190 20759,18406 20759,15975 "/>
  <polygon class="fil0 str0" points="22977,19816 20880,18606 22977,17395 "/>
  <polygon class="fil0 str0" points="24938,21437 23399,22325 23399,20549 "/>
  <polygon class="fil0 str0" points="25107,23507 23973,22852 25107,22198 "/>
  <polygon class="fil0 str0" points="24808,6003 24572,5867 24808,5731 "/>
  <polygon class="fil0 str0" points="24168,7282 23784,7504 23784,7061 "/>
  <polygon class="fil0 str0" points="22542,10571 21748,10113 22542,9655 "/>
  <polygon class="fil0 str0" points="22146,11529 21117,12123 21117,10935 "/>
  <polygon class="fil0 str0" points="20297,15175 18884,14359 20297,13544 "/>
  <polygon class="fil0 str0" points="20020,15775 18503,16651 18503,14899 "/>
  <polygon class="fil0 str0" points="20471,18307 18536,17190 20471,16074 "/>
  <polygon class="fil0 str0" points="22800,20021 20790,21182 20790,18861 "/>
  <polygon class="fil0 str0" points="22848,22426 21136,21437 22848,20448 "/>
  <polygon class="fil0 str0" points="23972,4451 23882,4503 23882,4399 "/>
  <polygon class="fil0 str0" points="22371,7445 22090,7282 22371,7120 "/>
  <polygon class="fil0 str0" points="21730,8698 21325,8931 21325,8464 "/>
  <polygon class="fil0 str0" points="20077,11963 19324,11529 20077,11094 "/>
  <polygon class="fil0 str0" points="19604,12944 18711,13459 18711,12429 "/>
  <polygon class="fil0 str0" points="17759,16442 16604,15775 17759,15108 "/>
  <polygon class="fil0 str0" points="20299,18606 18363,19723 18363,17489 "/>
  <polygon class="fil0 str0" points="20503,21194 18472,20021 20503,18848 "/>
  <polygon class="fil0 str0" points="22452,22852 20965,23711 20965,21994 "/>
  <polygon class="fil0 str0" points="22296,4483 22241,4451 22296,4419 "/>
  <polygon class="fil0 str0" points="21527,5867 21427,5925 21427,5809 "/>
  <polygon class="fil0 str0" points="19910,8843 19658,8698 19910,8553 "/>
  <polygon class="fil0 str0" points="19239,10113 18893,10313 18893,9913 "/>
  <polygon class="fil0 str0" points="17569,13282 16984,12944 17569,12606 "/>
  <polygon class="fil0 str0" points="17024,14359 16324,14764 16324,13955 "/>
  <polygon class="fil0 str0" points="17418,17190 16127,17936 16127,16445 "/>
  <polygon class="fil0 str0" points="17931,19570 16261,18606 17931,17642 "/>
  <polygon class="fil0 str0" points="20241,21437 18393,22504 18393,20369 "/>
  <polygon class="fil0 str0" points="20352,23764 18773,22852 20352,21941 "/>
  <polygon class="fil0 str0" points="19841,5892 19796,5867 19841,5841 "/>
  <polygon class="fil0 str0" points="19059,7282 18983,7326 18983,7238 "/>
  <polygon class="fil0 str0" points="17436,10220 17251,10113 17436,10007 "/>
  <polygon class="fil0 str0" points="16724,11529 16473,11674 16473,11384 "/>
  <polygon class="fil0 str0" points="15078,14628 14613,14359 15078,14091 "/>
  <polygon class="fil0 str0" points="14522,15775 13972,16092 13972,15457 "/>
  <polygon class="fil0 str0" points="15271,17794 14226,17190 15271,16587 "/>
  <polygon class="fil0 str0" points="17653,20021 16009,20971 16009,19072 "/>
  <polygon class="fil0 str0" points="17933,22405 16257,21437 17933,20469 "/>
  <polygon class="fil0 str0" points="19011,4451 19007,4454 19007,4449 "/>
  <polygon class="fil0 str0" points="17384,7299 17355,7282 17384,7266 "/>
  <polygon class="fil0 str0" points="16591,8698 16540,8727 16540,8668 "/>
  <polygon class="fil0 str0" points="14961,11596 14845,11529 14961,11461 "/>
  <polygon class="fil0 str0" points="14233,12944 14042,13054 14042,12834 "/>
  <polygon class="fil0 str0" points="14898,18606 13972,19141 13972,18071 "/>
  <polygon class="fil0 str0" points="15390,20831 13987,20021 15390,19212 "/>
  <polygon class="fil0 str0" points="17437,22852 16117,23615 16117,22090 "/>
  <polygon class="fil0 str0" points="17374,4451 17374,4451 17374,4451 "/>
  <polygon class="fil0 str0" points="16559,5867 16556,5868 16556,5865 "/>
  <polygon class="fil0 str0" points="14926,8705 14915,8698 14926,8691 "/>
  <polygon class="fil0 str0" points="14120,10113 14098,10126 14098,10100 "/>
  <polygon class="fil0 str0" points="14882,21437 13972,21963 13972,20911 "/>
  <polygon class="fil0 str0" points="15276,23465 14216,22852 15276,22240 "/>
  <polygon class="fil0 str0" points="14105,7282 14105,7282 14105,7282 "/>
  <polygon class="fil0 str0" points="13399,21577 12511,21064 12553,21040 13399,20552 "/>
  <polygon class="fil0 str0" points="13140,22479 11952,23165 11952,21794 "/>
  <polygon class="fil0 str0" points="13399,18648 12681,18233 13399,17818 "/>
  <polygon class="fil0 str0" points="12943,19648 12050,20164 12050,19133 "/>
  <polygon class="fil0 str0" points="11184,23295 9772,22479 11184,21664 "/>
  <polygon class="fil0 str0" points="13303,15641 12889,15402 13303,15164 "/>
  <polygon class="fil0 str0" points="12725,16818 12159,17144 12159,16491 "/>
  <polygon class="fil0 str0" points="11035,20206 10069,19648 11035,19091 "/>
  <polygon class="fil0 str0" points="10744,21064 9472,21798 9472,20330 "/>
  <polygon class="fil0 str0" points="12494,13987 12274,14114 12274,13860 "/>
  <polygon class="fil0 str0" points="10890,17124 10360,16818 10890,16511 "/>
  <polygon class="fil0 str0" points="10387,18233 9651,18658 9651,17808 "/>
  <polygon class="fil0 str0" points="8968,21754 7662,21000 8968,20245 "/>
  <polygon class="fil0 str0" points="8510,22479 6912,23402 6912,21557 "/>
  <polygon class="fil0 str0" points="10770,14085 10599,13987 10770,13888 "/>
  <polygon class="fil0 str0" points="10097,15402 9796,15576 9796,15228 "/>
  <polygon class="fil0 str0" points="8485,18621 7814,18233 8485,17845 "/>
  <polygon class="fil0 str0" points="8069,19648 7132,20189 7132,19108 "/>
  <polygon class="fil0 str0" points="6311,23348 4807,22479 6311,21611 "/>
  <polygon class="fil0 str0" points="8340,15538 8105,15402 8340,15266 "/>
  <polygon class="fil0 str0" points="7700,16818 7317,17039 7317,16596 "/>
  <polygon class="fil0 str0" points="6075,20107 5281,19648 6075,19190 "/>
  <polygon class="fil0 str0" points="5679,21064 4650,21658 4650,20470 "/>
  <polygon class="fil0 str0" points="7504,13987 7414,14039 7414,13935 "/>
  <polygon class="fil0 str0" points="5904,16980 5622,16818 5904,16655 "/>
  <polygon class="fil0 str0" points="5262,18233 4858,18467 4858,18000 "/>
  <polygon class="fil0 str0" points="3609,21499 2856,21064 3609,20629 "/>
  <polygon class="fil0 str0" points="3136,22479 2244,22995 2244,21964 "/>
  <polygon class="fil0 str0" points="5828,14019 5773,13987 5828,13955 "/>
  <polygon class="fil0 str0" points="5059,15402 4959,15460 4959,15344 "/>
  <polygon class="fil0 str0" points="3442,18378 3191,18233 3442,18088 "/>
  <polygon class="fil0 str0" points="2772,19648 2426,19848 2426,19449 "/>
  <polygon class="fil0 str0" points="1102,22818 517,22479 1102,22142 "/>
  <polygon class="fil0 str0" points="3373,15428 3329,15402 3373,15376 "/>
  <polygon class="fil0 str0" points="2592,16818 2516,16862 2516,16774 "/>
  <polygon class="fil0 str0" points="968,19755 784,19648 968,19542 "/>
  <polygon class="fil0 str0" points="257,21064 6,21209 6,20919 "/>
  <polygon class="fil0 str0" points="2544,13987 2540,13989 2540,13984 "/>
  <polygon class="fil0 str0" points="916,16834 888,16818 916,16801 "/>
  <polygon class="fil0 str0" points="124,18233 72,18263 72,18204 "/>
  <polygon class="fil0 str0" points="907,13987 906,13987 907,13987 "/>
  <polygon class="fil0 str0" points="91,15402 89,15404 89,15401 "/>
  <ellipse class="fil1" cx="20339" cy="288" rx="522" ry="288"/>
 </g>
</svg>
