<?xml version="1.0" encoding="UTF-8"?>
<!DOCTYPE svg PUBLIC "-//W3C//DTD SVG 1.1//EN" "http://www.w3.org/Graphics/SVG/1.1/DTD/svg11.dtd">
<!-- Creator: CorelDRAW 2017 -->
<svg xmlns="http://www.w3.org/2000/svg" xml:space="preserve" width="67.2735mm" height="126.966mm" version="1.1" style="shape-rendering:geometricPrecision; text-rendering:geometricPrecision; image-rendering:optimizeQuality; fill-rule:evenodd; clip-rule:evenodd"
viewBox="0 0 1603 3025"
 xmlns:xlink="http://www.w3.org/1999/xlink">
 <defs>
  <style type="text/css">
   <![CDATA[
    .str0 {stroke:#E4E4E4;stroke-width:1.81534;stroke-opacity:0.278431}
    .fil2 {fill:none}
    .fil1 {fill:black;fill-opacity:0.278431}
    .fil0 {fill:#E4E4E4;fill-opacity:0.278431}
   ]]>
  </style>
 </defs>
 <g id="Camada_x0020_1">
  <metadata id="CorelCorpID_0Corel-Layer"/>
  <polygon class="fil0 str0" points="1584,1974 1584,1974 1501,1926 1602,1868 1602,1984 "/>
  <polygon class="fil0 str0" points="1585,2065 1455,2140 1455,1990 "/>
  <polygon class="fil0 str0" points="1602,2262 1501,2204 1602,2146 "/>
  <polygon class="fil0 str0" points="1602,1699 1515,1648 1519,1646 1602,1598 "/>
  <polygon class="fil0 str0" points="1576,1787 1460,1854 1460,1720 "/>
  <polygon class="fil0 str0" points="1391,2155 1234,2065 1391,1974 "/>
  <polygon class="fil0 str0" points="1575,2343 1460,2409 1460,2276 "/>
  <polygon class="fil0 str0" points="1602,2532 1514,2481 1602,2430 "/>
  <polygon class="fil0 str0" points="1602,1411 1531,1371 1602,1330 "/>
  <polygon class="fil0 str0" points="1557,1509 1470,1560 1470,1459 "/>
  <polygon class="fil0 str0" points="1385,1867 1246,1787 1385,1707 "/>
  <polygon class="fil0 str0" points="1368,1926 1203,2021 1203,1831 "/>
  <polygon class="fil0 str0" points="1370,2204 1202,2300 1202,2107 "/>
  <polygon class="fil0 str0" points="1384,2422 1246,2343 1384,2263 "/>
  <polygon class="fil0 str0" points="1559,2620 1469,2672 1469,2568 "/>
  <polygon class="fil0 str0" points="1602,2801 1528,2759 1602,2717 "/>
  <polygon class="fil1" points="1592,1116 1552,1093 1592,1070 "/>
  <polygon class="fil0 str0" points="1536,1232 1480,1264 1480,1200 "/>
  <polygon class="fil0 str0" points="1370,1564 1275,1509 1370,1455 "/>
  <polygon class="fil0 str0" points="1341,1648 1217,1720 1217,1576 "/>
  <polygon class="fil0 str0" points="1158,2030 978,1926 1158,1822 "/>
  <polygon class="fil0 str0" points="1151,2065 951,2181 951,1949 "/>
  <polygon class="fil0 str0" points="1163,2316 968,2204 1163,2091 "/>
  <polygon class="fil0 str0" points="1348,2481 1213,2559 1213,2404 "/>
  <polygon class="fil0 str0" points="1372,2679 1271,2620 1372,2562 "/>
  <polygon class="fil0 str0" points="1540,2898 1478,2933 1478,2862 "/>
  <polygon class="fil0 str0" points="1568,3024 1596,3008 1596,3024 "/>
  <polygon class="fil0 str0" points="1513,954 1491,967 1491,942 "/>
  <polygon class="fil0 str0" points="1356,1262 1304,1232 1356,1202 "/>
  <polygon class="fil0 str0" points="1306,1371 1234,1412 1234,1329 "/>
  <polygon class="fil0 str0" points="1141,1722 1012,1648 1141,1574 "/>
  <polygon class="fil0 str0" points="1122,1787 965,1878 965,1697 "/>
  <polygon class="fil0 str0" points="924,2180 725,2065 924,1950 "/>
  <polygon class="fil0 str0" points="1147,2343 953,2454 953,2231 "/>
  <polygon class="fil0 str0" points="1152,2576 989,2481 1152,2387 "/>
  <polygon class="fil0 str0" points="1319,2759 1228,2812 1228,2706 "/>
  <polygon class="fil0 str0" points="1360,2935 1296,2898 1360,2861 "/>
  <polygon class="fil0 str0" points="1344,964 1327,954 1344,944 "/>
  <polygon class="fil0 str0" points="1278,1093 1248,1110 1248,1076 "/>
  <polygon class="fil0 str0" points="1120,1409 1054,1371 1120,1333 "/>
  <polygon class="fil0 str0" points="1079,1509 987,1562 987,1456 "/>
  <polygon class="fil0 str0" points="907,1872 759,1787 907,1702 "/>
  <polygon class="fil0 str0" points="889,1926 721,2023 721,1829 "/>
  <polygon class="fil0 str0" points="915,2204 708,2323 708,2084 "/>
  <polygon class="fil0 str0" points="926,2461 720,2343 926,2224 "/>
  <polygon class="fil0 str0" points="1118,2620 967,2707 967,2533 "/>
  <polygon class="fil0 str0" points="1135,2823 1024,2759 1135,2695 "/>
  <polygon class="fil0 str0" points="1242,3024 1242,3008 1269,3024 "/>
  <polygon class="fil0 str0" points="1106,1106 1082,1093 1106,1080 "/>
  <polygon class="fil0 str0" points="1043,1232 1005,1253 1005,1210 "/>
  <polygon class="fil0 str0" points="883,1554 805,1509 883,1465 "/>
  <polygon class="fil0 str0" points="909,2481 712,2595 712,2368 "/>
  <polygon class="fil0 str0" points="913,2717 745,2620 913,2523 "/>
  <polygon class="fil0 str0" points="1077,2898 988,2949 988,2847 "/>
  <polygon class="fil0 str0" points="1083,3024 1117,3004 1117,3024 "/>
  <polygon class="fil0 str0" points="1024,954 1015,959 1015,949 "/>
  <polygon class="fil0 str0" points="867,1248 839,1232 867,1216 "/>
  <polygon class="fil0 str0" points="874,2759 729,2843 729,2675 "/>
  <polygon class="fil0 str0" points="891,2957 789,2898 891,2839 "/>
  <polygon class="fil0 str0" points="845,1648 744,1707 744,1590 "/>
  <polygon class="fil0 str0" points="663,2006 525,1926 663,1846 "/>
  <polygon class="fil0 str0" points="636,2065 487,2151 487,1979 "/>
  <polygon class="fil0 str0" points="680,2313 490,2204 680,2094 "/>
  <polygon class="fil0 str0" points="804,1371 764,1394 764,1348 "/>
  <polygon class="fil0 str0" points="642,1691 568,1648 642,1606 "/>
  <polygon class="fil0 str0" points="595,1787 508,1838 508,1737 "/>
  <polygon class="fil0 str0" points="414,2130 301,2065 414,1999 "/>
  <polygon class="fil0 str0" points="663,2343 473,2452 473,2233 "/>
  <polygon class="fil0 str0" points="683,2596 484,2481 683,2366 "/>
  <polygon class="fil0 str0" points="859,957 854,954 859,951 "/>
  <polygon class="fil0 str0" points="784,1093 774,1099 774,1087 "/>
  <polygon class="fil0 str0" points="625,1385 600,1371 625,1356 "/>
  <polygon class="fil0 str0" points="559,1509 525,1529 525,1490 "/>
  <polygon class="fil0 str0" points="396,1820 338,1787 396,1754 "/>
  <polygon class="fil0 str0" points="342,1926 273,1966 273,1886 "/>
  <polygon class="fil0 str0" points="381,2204 254,2277 254,2131 "/>
  <polygon class="fil0 str0" points="431,2437 267,2343 431,2248 "/>
  <polygon class="fil0 str0" points="658,2620 476,2725 476,2516 "/>
  <polygon class="fil0 str0" points="669,2848 514,2759 669,2670 "/>
  <polygon class="fil0 str0" points="753,3024 753,2996 802,3024 "/>
  <polygon class="fil0 str0" points="618,1095 614,1093 618,1090 "/>
  <polygon class="fil0 str0" points="542,1232 534,1236 534,1227 "/>
  <polygon class="fil0 str0" points="382,1520 364,1509 382,1499 "/>
  <polygon class="fil0 str0" points="313,1648 288,1663 288,1634 "/>
  <polygon class="fil0 str0" points="151,1952 106,1926 151,1900 "/>
  <polygon class="fil0 str0" points="97,2065 43,2096 43,2034 "/>
  <polygon class="fil0 str0" points="170,2263 68,2204 170,2145 "/>
  <polygon class="fil0 str0" points="404,2481 243,2574 243,2388 "/>
  <polygon class="fil0 str0" points="431,2715 267,2620 431,2525 "/>
  <polygon class="fil0 str0" points="614,2898 498,2965 498,2831 "/>
  <polygon class="fil0 str0" points="589,3024 642,2993 642,3024 "/>
  <polygon class="fil0 str0" points="537,954 537,954 537,954 "/>
  <polygon class="fil0 str0" points="377,1233 375,1232 377,1230 "/>
  <polygon class="fil0 str0" points="300,1371 295,1374 295,1368 "/>
  <polygon class="fil0 str0" points="140,1655 128,1648 140,1642 "/>
  <polygon class="fil0 str0" points="68,1787 50,1798 50,1776 "/>
  <polygon class="fil0 str0" points="134,2343 43,2395 43,2290 "/>
  <polygon class="fil0 str0" points="182,2561 44,2481 182,2402 "/>
  <polygon class="fil0 str0" points="383,2759 253,2834 253,2684 "/>
  <polygon class="fil0 str0" points="411,2958 307,2898 411,2838 "/>
  <polygon class="fil0 str0" points="376,954 376,954 376,954 "/>
  <polygon class="fil0 str0" points="296,1093 296,1093 296,1093 "/>
  <polygon class="fil0 str0" points="136,1371 135,1371 136,1370 "/>
  <polygon class="fil0 str0" points="57,1509 55,1511 55,1508 "/>
  <polygon class="fil0 str0" points="132,2620 43,2672 43,2569 "/>
  <polygon class="fil0 str0" points="171,2819 67,2759 171,2699 "/>
  <polygon class="fil0 str0" points="277,3024 277,3003 313,3024 "/>
  <polygon class="fil0 str0" points="56,1232 56,1232 56,1232 "/>
  <polygon class="fil0 str0" points="95,2898 43,2928 43,2867 "/>
  <polygon class="fil0 str0" points="132,3024 149,3014 149,3024 "/>
  <rect class="fil2" width="376" height="33"/>
 </g>
</svg>
