<?xml version="1.0" encoding="UTF-8"?>
<!DOCTYPE svg PUBLIC "-//W3C//DTD SVG 1.1//EN" "http://www.w3.org/Graphics/SVG/1.1/DTD/svg11.dtd">
<!-- Creator: CorelDRAW 2017 -->
<svg xmlns="http://www.w3.org/2000/svg" xml:space="preserve" width="4.0805mm" height="4.0806mm" version="1.1" style="shape-rendering:geometricPrecision; text-rendering:geometricPrecision; image-rendering:optimizeQuality; fill-rule:evenodd; clip-rule:evenodd"
viewBox="0 0 12 12"
 xmlns:xlink="http://www.w3.org/1999/xlink">
 <defs>
  <style type="text/css">
   <![CDATA[
    .fil0 {fill:#464646}
   ]]>
  </style>
 </defs>
 <g id="Conteúdo_x0020_do_x0020_PowerClip">
  <metadata id="CorelCorpID_0Corel-Layer"/>
  <path class="fil0" d="M9 11l-1 0c0,-1 0,-2 0,-3 0,0 0,0 0,0 0,0 0,0 0,0 0,0 -1,0 -2,0 0,0 0,0 -1,0 0,0 -1,1 -1,1l0 2 -1 0c-1,0 -1,-1 -1,-1l0 -3c0,-1 0,-1 -1,-1 0,0 0,0 0,0 0,0 0,0 0,0 0,0 0,-1 1,-1l4 -4c0,0 1,0 1,0l4 4c0,0 0,0 0,0 0,0 0,0 0,0 0,0 -1,0 -1,1 0,1 0,4 0,4 0,0 0,0 -1,0zm-4 -11l0 0c1,0 1,0 1,1l4 4c1,1 1,1 1,1 0,0 0,1 -1,1 0,0 -1,0 -1,0l0 3c0,0 0,1 0,1 0,1 -1,1 -1,1l-2 0c0,0 0,0 0,0 0,0 0,-3 0,-3 0,0 0,0 0,0 0,0 0,0 0,0l-1 0c0,0 -1,0 -1,1l0 2c0,0 0,1 0,1l-2 0c-1,0 -1,0 -1,-1 0,0 0,-2 0,-3 0,-1 0,-1 0,-1 0,0 -1,0 -1,0 0,0 0,0 0,-1 0,0 0,-1 1,-1l4 -4c0,0 1,-1 1,-1z"/>
 </g>
</svg>
