<?xml version="1.0" encoding="UTF-8"?>
<!DOCTYPE svg PUBLIC "-//W3C//DTD SVG 1.1//EN" "http://www.w3.org/Graphics/SVG/1.1/DTD/svg11.dtd">
<!-- Creator: CorelDRAW 2017 -->
<svg xmlns="http://www.w3.org/2000/svg" xml:space="preserve" width="4.0131mm" height="4.0112mm" version="1.1" style="shape-rendering:geometricPrecision; text-rendering:geometricPrecision; image-rendering:optimizeQuality; fill-rule:evenodd; clip-rule:evenodd"
viewBox="0 0 7 7"
 xmlns:xlink="http://www.w3.org/1999/xlink">
 <defs>
  <style type="text/css">
   <![CDATA[
    .str0 {stroke:#464646;stroke-width:0.124365}
    .fil0 {fill:#464646}
   ]]>
  </style>
 </defs>
 <g id="Conteúdo_x0020_do_x0020_PowerClip">
  <metadata id="CorelCorpID_0Corel-Layer"/>
  <g id="_1820869572752">
   <g>
    <path class="fil0 str0" d="M0 6c0,0 0,0 0,0l6 0c0,0 0,0 0,0 0,-1 0,-1 -1,-2 0,0 -1,-1 -2,-1 -1,0 -1,0 -2,0 0,0 0,0 0,0 0,0 -1,0 -1,1 0,0 -1,1 -1,2z"/>
    <path class="fil0 str0" d="M2 2c0,0 0,1 0,1 1,1 3,0 3,-1 0,-1 -1,-1 -1,-1 -1,0 -1,0 -1,0 0,0 0,1 0,1z"/>
   </g>
  </g>
 </g>
</svg>
