<?xml version="1.0" encoding="UTF-8"?>
<!DOCTYPE svg PUBLIC "-//W3C//DTD SVG 1.1//EN" "http://www.w3.org/Graphics/SVG/1.1/DTD/svg11.dtd">
<!-- Creator: CorelDRAW 2017 -->
<svg xmlns="http://www.w3.org/2000/svg" xml:space="preserve" width="4.0103mm" height="4.0103mm" version="1.1" style="shape-rendering:geometricPrecision; text-rendering:geometricPrecision; image-rendering:optimizeQuality; fill-rule:evenodd; clip-rule:evenodd"
viewBox="0 0 8 8"
 xmlns:xlink="http://www.w3.org/1999/xlink">
 <defs>
  <style type="text/css">
   <![CDATA[
    .fil0 {fill:#FEFEFE}
   ]]>
  </style>
 </defs>
 <g id="Conteúdo_x0020_do_x0020_PowerClip">
  <metadata id="CorelCorpID_0Corel-Layer"/>
  <g id="_1820869580592">
   <g>
    <path class="fil0" d="M2 7l1 0 0 0 -1 0 0 0zm0 0l0 0 0 1 0 0 0 -1zm-1 0c0,0 0,0 0,0l0 0 0 1c0,0 0,0 -1,0 0,0 0,0 0,0zm3 0l0 -1 0 0c0,0 0,0 0,0 0,0 0,0 0,0 0,0 0,0 0,0l-1 0zm-2 -1l1 0 0 0 -1 0 0 0zm1 -3l2 0c0,0 0,0 0,0 0,0 0,0 0,0 0,0 0,0 0,0l1 0c0,0 0,0 0,0 0,0 0,0 0,0 0,0 0,0 0,0 0,0 0,0 0,0l0 0 0 4 -4 0 0 0c1,0 0,0 1,0 0,0 0,0 0,0 0,0 0,0 0,0 0,0 0,0 0,0 -1,0 0,0 -1,0l0 -3zm2 -2l0 0c0,0 0,0 1,0 0,0 0,0 0,0 0,0 0,0 0,0l1 0c0,0 0,0 0,0 0,0 0,0 0,0 0,0 0,0 0,0l0 0c0,0 0,0 0,1 0,0 0,0 0,0 0,0 0,0 0,0l0 1c0,0 0,0 0,0 0,0 0,0 0,0 0,0 0,0 0,0l0 0c0,0 0,0 -1,0 0,0 0,0 0,0 0,0 0,0 0,0l-1 0c0,0 0,0 0,0 0,0 0,0 0,0 0,0 0,0 0,0l0 0c0,0 0,0 0,0 0,0 0,0 0,0 0,0 0,0 0,0l0 -1c0,0 0,0 0,0 0,0 0,0 0,0 0,0 0,0 0,0 0,0 0,0 0,0zm-2 1l0 0 0 0c0,0 0,0 0,-1 0,0 1,0 1,0 0,0 0,0 0,0 0,0 0,0 0,0 0,0 0,0 0,0 0,0 0,0 0,0l0 1c0,0 0,0 0,0 0,0 0,0 0,0 0,0 0,0 0,0l0 0 -2 0 0 0 0 0 0 3 0 0 0 -1c0,0 0,0 0,0 0,0 -1,0 -1,0 0,0 0,0 0,0 0,0 0,0 0,0 0,0 0,0 0,0 0,0 0,0 0,0 0,0 0,0 0,-1 0,0 0,0 0,0 0,0 -1,0 -1,0 0,0 0,-1 0,-1 0,0 1,0 1,0 0,0 0,0 0,0l0 0c0,0 0,-1 -1,-1 0,0 0,0 0,0 0,0 0,-1 0,-1 0,0 1,0 1,0 0,0 0,0 0,0 0,0 0,0 0,1zm-3 1c0,0 0,0 0,1 0,0 1,0 1,0 1,0 1,0 1,0 0,0 0,0 0,0 0,0 0,0 0,0 0,0 0,0 0,0 0,0 0,1 0,1 0,0 1,0 1,0 0,0 0,0 0,0l0 1 -2 0c0,0 -1,0 -1,1l0 0c0,0 0,1 1,1l2 0 0 0 4 0 0 -5c0,0 0,0 0,0 0,0 0,0 0,0 0,0 0,0 0,0 0,0 0,0 0,0 0,0 0,0 0,0l0 -1c0,0 0,0 0,0 0,0 0,0 0,0 0,0 0,0 0,0 0,0 0,0 0,0l-1 -1c0,0 0,0 0,0 0,0 0,0 0,0 0,0 0,0 0,0l-1 0c0,0 0,0 0,0 0,0 0,0 0,0 0,0 0,0 0,0l0 0c0,0 0,0 -1,0 0,0 0,0 0,0 0,0 -1,-1 -1,-1 0,0 -1,0 -1,0 0,0 -1,1 -1,1 0,0 0,0 0,0 0,0 0,0 0,1z"/>
    <path class="fil0" d="M5 2c0,0 0,0 0,0 0,0 0,0 0,0 0,0 1,0 1,0 0,0 0,1 0,1 0,0 -1,0 -1,0 0,0 0,0 0,0 0,0 0,0 0,0zm0 0c0,0 0,0 0,1 0,0 0,0 0,0 0,0 1,0 1,0 0,0 0,0 0,0 0,0 0,-1 0,-1 0,0 0,0 0,0 0,0 0,0 0,0 0,0 0,0 0,0 -1,0 -1,0 -2,0 0,0 0,0 0,0z"/>
    <path class="fil0" d="M5 2c0,0 0,-1 1,0 0,0 0,1 -1,1 0,0 0,0 0,0zm0 0l0 0c0,0 0,1 1,1l0 0c0,0 1,0 1,-1l0 0c0,0 0,-1 -1,-1l0 0c0,0 -1,0 -1,1z"/>
    <polygon class="fil0" points="4,4 7,4 7,4 4,4 "/>
    <polygon class="fil0" points="4,5 7,5 7,5 4,5 "/>
    <polygon class="fil0" points="5,5 7,5 7,4 5,4 "/>
    <polygon class="fil0" points="4,6 6,6 6,5 4,5 "/>
    <path class="fil0" d="M5 7c0,0 0,0 0,0 0,0 0,0 0,0zm0 0c0,1 1,1 1,0 0,0 0,0 0,0 0,0 0,0 0,0z"/>
    <path class="fil0" d="M6 7c0,0 0,0 0,0 0,0 0,0 0,0zm0 0c0,1 1,1 1,0 0,0 0,0 0,0 0,0 0,0 0,0z"/>
    <polygon class="fil0" points="3,4 3,4 3,4 3,5 4,4 4,4 "/>
    <polygon class="fil0" points="3,5 3,5 3,5 3,6 4,5 4,5 "/>
    <polygon class="fil0" points="4,5 5,5 5,4 4,4 "/>
    <polygon class="fil0" points="6,6 7,6 7,5 6,5 "/>
   </g>
  </g>
 </g>
</svg>
